<mxfile host="app.diagrams.net" modified="2023-11-17T13:04:05.216Z" agent="Mozilla/5.0 (Windows NT 10.0; Win64; x64) AppleWebKit/537.36 (KHTML, like Gecko) Chrome/119.0.0.0 Safari/537.36" etag="eD1Wpe9daBIfSlwaqICA" version="22.1.3" type="github">
  <diagram id="R2lEEEUBdFMjLlhIrx00" name="Page-1">
    <mxGraphModel dx="2206" dy="1148" grid="1" gridSize="10" guides="1" tooltips="1" connect="1" arrows="1" fold="1" page="1" pageScale="1" pageWidth="850" pageHeight="1100" math="0" shadow="0" extFonts="Permanent Marker^https://fonts.googleapis.com/css?family=Permanent+Marker">
      <root>
        <mxCell id="0" />
        <mxCell id="1" parent="0" />
        <mxCell id="OklFRCkTgphjzxKatDET-1" value="회원 ID" style="ellipse;whiteSpace=wrap;html=1;" vertex="1" parent="1">
          <mxGeometry x="680" y="450" width="120" height="80" as="geometry" />
        </mxCell>
        <mxCell id="OklFRCkTgphjzxKatDET-2" value="&lt;b style=&quot;font-weight:normal;&quot; id=&quot;docs-internal-guid-e169eb77-7fff-bd0b-64af-ed0be1e55c79&quot;&gt;&lt;ol style=&quot;margin-top:0;margin-bottom:0;padding-inline-start:48px;&quot;&gt;&lt;li dir=&quot;ltr&quot; style=&quot;list-style-type: decimal; font-size: 11pt; font-family: Arial, sans-serif; color: rgb(0, 0, 0); background-color: transparent; font-weight: 700; font-style: normal; font-variant: normal; text-decoration: none; vertical-align: baseline;&quot; aria-level=&quot;1&quot;&gt;&lt;p dir=&quot;ltr&quot; style=&quot;line-height:1.38;margin-top:0pt;margin-bottom:0pt;&quot; role=&quot;presentation&quot;&gt;&lt;span style=&quot;font-size: 11pt; font-family: Arial, sans-serif; color: rgb(0, 0, 0); background-color: rgb(255, 217, 102); font-weight: 700; font-style: normal; font-variant: normal; text-decoration: none; vertical-align: baseline;&quot;&gt;회원&lt;/span&gt;&lt;span style=&quot;font-size: 11pt; font-family: Arial, sans-serif; color: rgb(0, 0, 0); background-color: transparent; font-weight: 700; font-style: normal; font-variant: normal; text-decoration: none; vertical-align: baseline;&quot;&gt;의 정보를 저장하는 테이블&lt;/span&gt;&lt;/p&gt;&lt;/li&gt;&lt;ol style=&quot;margin-top:0;margin-bottom:0;padding-inline-start:48px;&quot;&gt;&lt;li dir=&quot;ltr&quot; style=&quot;list-style-type: lower-alpha; font-size: 11pt; font-family: Arial, sans-serif; color: rgb(0, 0, 0); background-color: transparent; font-weight: 700; font-style: normal; font-variant: normal; text-decoration: none; vertical-align: baseline;&quot; aria-level=&quot;2&quot;&gt;&lt;p dir=&quot;ltr&quot; style=&quot;line-height:1.38;margin-top:0pt;margin-bottom:0pt;&quot; role=&quot;presentation&quot;&gt;&lt;span style=&quot;font-size: 11pt; font-family: Arial, sans-serif; color: rgb(0, 0, 0); background-color: transparent; font-weight: 400; font-style: normal; font-variant: normal; text-decoration: none; vertical-align: baseline;&quot;&gt;각 회원은 고유한 회원ID, 이름, 이메일, 전화번호, 멤버십 유형을 가질 수 있습니다.&lt;/span&gt;&lt;/p&gt;&lt;/li&gt;&lt;/ol&gt;&lt;li dir=&quot;ltr&quot; style=&quot;list-style-type: decimal; font-size: 11pt; font-family: Arial, sans-serif; color: rgb(0, 0, 0); background-color: transparent; font-weight: 700; font-style: normal; font-variant: normal; text-decoration: none; vertical-align: baseline;&quot; aria-level=&quot;1&quot;&gt;&lt;p dir=&quot;ltr&quot; style=&quot;line-height:1.38;margin-top:0pt;margin-bottom:0pt;&quot; role=&quot;presentation&quot;&gt;&lt;span style=&quot;font-size: 11pt; font-family: Arial, sans-serif; color: rgb(0, 0, 0); background-color: transparent; font-weight: 700; font-style: normal; font-variant: normal; text-decoration: none; vertical-align: baseline;&quot;&gt;헬스장의 &lt;/span&gt;&lt;span style=&quot;font-size: 11pt; font-family: Arial, sans-serif; color: rgb(0, 0, 0); background-color: rgb(255, 217, 102); font-weight: 700; font-style: normal; font-variant: normal; text-decoration: none; vertical-align: baseline;&quot;&gt;직원&lt;/span&gt;&lt;span style=&quot;font-size: 11pt; font-family: Arial, sans-serif; color: rgb(0, 0, 0); background-color: transparent; font-weight: 700; font-style: normal; font-variant: normal; text-decoration: none; vertical-align: baseline;&quot;&gt; 정보를 저장하는 테이블&lt;/span&gt;&lt;/p&gt;&lt;/li&gt;&lt;ol style=&quot;margin-top:0;margin-bottom:0;padding-inline-start:48px;&quot;&gt;&lt;li dir=&quot;ltr&quot; style=&quot;list-style-type: lower-alpha; font-size: 11pt; font-family: Arial, sans-serif; color: rgb(0, 0, 0); background-color: transparent; font-weight: 700; font-style: normal; font-variant: normal; text-decoration: none; vertical-align: baseline;&quot; aria-level=&quot;2&quot;&gt;&lt;p dir=&quot;ltr&quot; style=&quot;line-height:1.38;margin-top:0pt;margin-bottom:0pt;&quot; role=&quot;presentation&quot;&gt;&lt;span style=&quot;font-size: 11pt; font-family: Arial, sans-serif; color: rgb(0, 0, 0); background-color: transparent; font-weight: 400; font-style: normal; font-variant: normal; text-decoration: none; vertical-align: baseline;&quot;&gt;&amp;nbsp;각 직원은 고유한 직원ID, 이름, 이메일, 전화번호, 직책을 가질 수 있습니다.&lt;/span&gt;&lt;/p&gt;&lt;/li&gt;&lt;/ol&gt;&lt;li dir=&quot;ltr&quot; style=&quot;list-style-type: decimal; font-size: 11pt; font-family: Arial, sans-serif; color: rgb(0, 0, 0); background-color: transparent; font-weight: 700; font-style: normal; font-variant: normal; text-decoration: none; vertical-align: baseline;&quot; aria-level=&quot;1&quot;&gt;&lt;p dir=&quot;ltr&quot; style=&quot;line-height:1.38;margin-top:0pt;margin-bottom:0pt;&quot; role=&quot;presentation&quot;&gt;&lt;span style=&quot;font-size: 11pt; font-family: Arial, sans-serif; color: rgb(0, 0, 0); background-color: transparent; font-weight: 700; font-style: normal; font-variant: normal; text-decoration: none; vertical-align: baseline;&quot;&gt;헬스장 내의 &lt;/span&gt;&lt;span style=&quot;font-size: 11pt; font-family: Arial, sans-serif; color: rgb(0, 0, 0); background-color: rgb(255, 217, 102); font-weight: 700; font-style: normal; font-variant: normal; text-decoration: none; vertical-align: baseline;&quot;&gt;시설&lt;/span&gt;&lt;span style=&quot;font-size: 11pt; font-family: Arial, sans-serif; color: rgb(0, 0, 0); background-color: transparent; font-weight: 700; font-style: normal; font-variant: normal; text-decoration: none; vertical-align: baseline;&quot;&gt; 정보를 저장하는 테이블&lt;/span&gt;&lt;/p&gt;&lt;/li&gt;&lt;ol style=&quot;margin-top:0;margin-bottom:0;padding-inline-start:48px;&quot;&gt;&lt;li dir=&quot;ltr&quot; style=&quot;list-style-type: lower-alpha; font-size: 11pt; font-family: Arial, sans-serif; color: rgb(0, 0, 0); background-color: transparent; font-weight: 700; font-style: normal; font-variant: normal; text-decoration: none; vertical-align: baseline;&quot; aria-level=&quot;2&quot;&gt;&lt;p dir=&quot;ltr&quot; style=&quot;line-height:1.38;margin-top:0pt;margin-bottom:0pt;&quot; role=&quot;presentation&quot;&gt;&lt;span style=&quot;font-size: 11pt; font-family: Arial, sans-serif; color: rgb(0, 0, 0); background-color: transparent; font-weight: 400; font-style: normal; font-variant: normal; text-decoration: none; vertical-align: baseline;&quot;&gt;각 시설은 고유한 시설ID, 이름, 유형, 위치를 가질 수 있습니다.&lt;/span&gt;&lt;/p&gt;&lt;/li&gt;&lt;/ol&gt;&lt;li dir=&quot;ltr&quot; style=&quot;list-style-type: decimal; font-size: 11pt; font-family: Arial, sans-serif; color: rgb(0, 0, 0); background-color: transparent; font-weight: 700; font-style: normal; font-variant: normal; text-decoration: none; vertical-align: baseline;&quot; aria-level=&quot;1&quot;&gt;&lt;p dir=&quot;ltr&quot; style=&quot;line-height:1.38;margin-top:0pt;margin-bottom:0pt;&quot; role=&quot;presentation&quot;&gt;&lt;span style=&quot;font-size: 11pt; font-family: Arial, sans-serif; color: rgb(0, 0, 0); background-color: transparent; font-weight: 700; font-style: normal; font-variant: normal; text-decoration: none; vertical-align: baseline;&quot;&gt;헬스장의 &lt;/span&gt;&lt;span style=&quot;font-size: 11pt; font-family: Arial, sans-serif; color: rgb(0, 0, 0); background-color: rgb(255, 217, 102); font-weight: 700; font-style: normal; font-variant: normal; text-decoration: none; vertical-align: baseline;&quot;&gt;트레이너&lt;/span&gt;&lt;span style=&quot;font-size: 11pt; font-family: Arial, sans-serif; color: rgb(0, 0, 0); background-color: transparent; font-weight: 700; font-style: normal; font-variant: normal; text-decoration: none; vertical-align: baseline;&quot;&gt; 정보를 저장하는 테이블&lt;/span&gt;&lt;/p&gt;&lt;/li&gt;&lt;ol style=&quot;margin-top:0;margin-bottom:0;padding-inline-start:48px;&quot;&gt;&lt;li dir=&quot;ltr&quot; style=&quot;list-style-type: lower-alpha; font-size: 11pt; font-family: Arial, sans-serif; color: rgb(0, 0, 0); background-color: transparent; font-weight: 700; font-style: normal; font-variant: normal; text-decoration: none; vertical-align: baseline;&quot; aria-level=&quot;2&quot;&gt;&lt;p dir=&quot;ltr&quot; style=&quot;line-height:1.38;margin-top:0pt;margin-bottom:0pt;&quot; role=&quot;presentation&quot;&gt;&lt;span style=&quot;font-size: 11pt; font-family: Arial, sans-serif; color: rgb(0, 0, 0); background-color: transparent; font-weight: 400; font-style: normal; font-variant: normal; text-decoration: none; vertical-align: baseline;&quot;&gt;각 트레이너는 고유한 트레이너ID, 이름, 이메일, 전화번호, 전문 분야를 가질 수 있습니다.&lt;/span&gt;&lt;/p&gt;&lt;/li&gt;&lt;/ol&gt;&lt;li dir=&quot;ltr&quot; style=&quot;list-style-type: decimal; font-size: 11pt; font-family: Arial, sans-serif; color: rgb(0, 0, 0); background-color: transparent; font-weight: 700; font-style: normal; font-variant: normal; text-decoration: none; vertical-align: baseline;&quot; aria-level=&quot;1&quot;&gt;&lt;p dir=&quot;ltr&quot; style=&quot;line-height:1.38;margin-top:0pt;margin-bottom:0pt;&quot; role=&quot;presentation&quot;&gt;&lt;span style=&quot;font-size: 11pt; font-family: Arial, sans-serif; color: rgb(0, 0, 0); background-color: transparent; font-weight: 700; font-style: normal; font-variant: normal; text-decoration: none; vertical-align: baseline;&quot;&gt;헬스장에서 제공되는 &lt;/span&gt;&lt;span style=&quot;font-size: 11pt; font-family: Arial, sans-serif; color: rgb(0, 0, 0); background-color: rgb(255, 217, 102); font-weight: 700; font-style: normal; font-variant: normal; text-decoration: none; vertical-align: baseline;&quot;&gt;수업&lt;/span&gt;&lt;span style=&quot;font-size: 11pt; font-family: Arial, sans-serif; color: rgb(0, 0, 0); background-color: transparent; font-weight: 700; font-style: normal; font-variant: normal; text-decoration: none; vertical-align: baseline;&quot;&gt; 정보를 저장하는 테이블&lt;/span&gt;&lt;/p&gt;&lt;/li&gt;&lt;ol style=&quot;margin-top:0;margin-bottom:0;padding-inline-start:48px;&quot;&gt;&lt;li dir=&quot;ltr&quot; style=&quot;list-style-type: lower-alpha; font-size: 11pt; font-family: Arial, sans-serif; color: rgb(0, 0, 0); background-color: transparent; font-weight: 700; font-style: normal; font-variant: normal; text-decoration: none; vertical-align: baseline;&quot; aria-level=&quot;2&quot;&gt;&lt;p dir=&quot;ltr&quot; style=&quot;line-height:1.38;margin-top:0pt;margin-bottom:0pt;&quot; role=&quot;presentation&quot;&gt;&lt;span style=&quot;font-size: 11pt; font-family: Arial, sans-serif; color: rgb(0, 0, 0); background-color: transparent; font-weight: 400; font-style: normal; font-variant: normal; text-decoration: none; vertical-align: baseline;&quot;&gt;각 수업은 고유한 수업ID, 이름, 유형, 일정을 가질 수 있습니다.&lt;/span&gt;&lt;/p&gt;&lt;/li&gt;&lt;/ol&gt;&lt;li dir=&quot;ltr&quot; style=&quot;list-style-type: decimal; font-size: 11pt; font-family: Arial, sans-serif; color: rgb(0, 0, 0); background-color: transparent; font-weight: 700; font-style: normal; font-variant: normal; text-decoration: none; vertical-align: baseline;&quot; aria-level=&quot;1&quot;&gt;&lt;p dir=&quot;ltr&quot; style=&quot;line-height:1.38;margin-top:0pt;margin-bottom:0pt;&quot; role=&quot;presentation&quot;&gt;&lt;span style=&quot;font-size: 11pt; font-family: Arial, sans-serif; color: rgb(0, 0, 0); background-color: transparent; font-weight: 700; font-style: normal; font-variant: normal; text-decoration: none; vertical-align: baseline;&quot;&gt;각 회원은 여러 수업을 예약할 수 있습니다.&amp;nbsp; (다대다 관계)&lt;/span&gt;&lt;/p&gt;&lt;/li&gt;&lt;li dir=&quot;ltr&quot; style=&quot;list-style-type: decimal; font-size: 11pt; font-family: Arial, sans-serif; color: rgb(0, 0, 0); background-color: transparent; font-weight: 700; font-style: normal; font-variant: normal; text-decoration: none; vertical-align: baseline;&quot; aria-level=&quot;1&quot;&gt;&lt;p dir=&quot;ltr&quot; style=&quot;line-height:1.38;margin-top:0pt;margin-bottom:0pt;&quot; role=&quot;presentation&quot;&gt;&lt;span style=&quot;font-size: 11pt; font-family: Arial, sans-serif; color: rgb(0, 0, 0); background-color: transparent; font-weight: 700; font-style: normal; font-variant: normal; text-decoration: none; vertical-align: baseline;&quot;&gt;한 명의 직원은 여러 시설을 관리할 수 있습니다. (일대다 관계)&lt;/span&gt;&lt;/p&gt;&lt;/li&gt;&lt;li dir=&quot;ltr&quot; style=&quot;list-style-type: decimal; font-size: 11pt; font-family: Arial, sans-serif; color: rgb(0, 0, 0); background-color: transparent; font-weight: 700; font-style: normal; font-variant: normal; text-decoration: none; vertical-align: baseline;&quot; aria-level=&quot;1&quot;&gt;&lt;p dir=&quot;ltr&quot; style=&quot;line-height:1.38;margin-top:0pt;margin-bottom:0pt;&quot; role=&quot;presentation&quot;&gt;&lt;span style=&quot;font-size: 11pt; font-family: Arial, sans-serif; color: rgb(0, 0, 0); background-color: transparent; font-weight: 700; font-style: normal; font-variant: normal; text-decoration: none; vertical-align: baseline;&quot;&gt;각 트레이너는 여러 회원을 갖고 있을 수 있습니다. 또한 각 회원은 여러 트레이너를 가질 수 있습니다.(다대다 관계)&lt;/span&gt;&lt;/p&gt;&lt;/li&gt;&lt;li dir=&quot;ltr&quot; style=&quot;list-style-type: decimal; font-size: 11pt; font-family: Arial, sans-serif; color: rgb(0, 0, 0); background-color: transparent; font-weight: 700; font-style: normal; font-variant: normal; text-decoration: none; vertical-align: baseline;&quot; aria-level=&quot;1&quot;&gt;&lt;p dir=&quot;ltr&quot; style=&quot;line-height:1.38;margin-top:0pt;margin-bottom:0pt;&quot; role=&quot;presentation&quot;&gt;&lt;span style=&quot;font-size: 11pt; font-family: Arial, sans-serif; color: rgb(0, 0, 0); background-color: transparent; font-weight: 700; font-style: normal; font-variant: normal; text-decoration: none; vertical-align: baseline;&quot;&gt;각 수업은 한 명의 강사에 의해 지도될 수 있음 (일대다 관계)&lt;/span&gt;&lt;/p&gt;&lt;/li&gt;&lt;/ol&gt;&lt;/b&gt;" style="text;whiteSpace=wrap;html=1;" vertex="1" parent="1">
          <mxGeometry x="150" y="20" width="560" height="390" as="geometry" />
        </mxCell>
        <mxCell id="OklFRCkTgphjzxKatDET-3" value="이름" style="ellipse;whiteSpace=wrap;html=1;" vertex="1" parent="1">
          <mxGeometry x="680" y="540" width="120" height="80" as="geometry" />
        </mxCell>
        <mxCell id="OklFRCkTgphjzxKatDET-5" value="이메일&lt;br&gt;" style="ellipse;whiteSpace=wrap;html=1;" vertex="1" parent="1">
          <mxGeometry x="680" y="630" width="120" height="80" as="geometry" />
        </mxCell>
        <mxCell id="OklFRCkTgphjzxKatDET-6" value="전화번호" style="ellipse;whiteSpace=wrap;html=1;" vertex="1" parent="1">
          <mxGeometry x="680" y="720" width="120" height="80" as="geometry" />
        </mxCell>
        <mxCell id="OklFRCkTgphjzxKatDET-7" value="멤버십 유형" style="ellipse;whiteSpace=wrap;html=1;" vertex="1" parent="1">
          <mxGeometry x="680" y="810" width="120" height="80" as="geometry" />
        </mxCell>
        <mxCell id="OklFRCkTgphjzxKatDET-8" value="회원" style="rounded=0;whiteSpace=wrap;html=1;" vertex="1" parent="1">
          <mxGeometry x="900" y="620" width="180" height="100" as="geometry" />
        </mxCell>
        <mxCell id="OklFRCkTgphjzxKatDET-9" value="직원 ID" style="ellipse;whiteSpace=wrap;html=1;" vertex="1" parent="1">
          <mxGeometry x="1220" y="450" width="120" height="80" as="geometry" />
        </mxCell>
        <mxCell id="OklFRCkTgphjzxKatDET-10" value="이름" style="ellipse;whiteSpace=wrap;html=1;" vertex="1" parent="1">
          <mxGeometry x="1220" y="540" width="120" height="80" as="geometry" />
        </mxCell>
        <mxCell id="OklFRCkTgphjzxKatDET-11" value="이메일&lt;br&gt;" style="ellipse;whiteSpace=wrap;html=1;" vertex="1" parent="1">
          <mxGeometry x="1220" y="630" width="120" height="80" as="geometry" />
        </mxCell>
        <mxCell id="OklFRCkTgphjzxKatDET-12" value="전화번호" style="ellipse;whiteSpace=wrap;html=1;" vertex="1" parent="1">
          <mxGeometry x="1220" y="720" width="120" height="80" as="geometry" />
        </mxCell>
        <mxCell id="OklFRCkTgphjzxKatDET-13" value="직책" style="ellipse;whiteSpace=wrap;html=1;" vertex="1" parent="1">
          <mxGeometry x="1220" y="810" width="120" height="80" as="geometry" />
        </mxCell>
        <mxCell id="OklFRCkTgphjzxKatDET-14" value="직원" style="rounded=0;whiteSpace=wrap;html=1;" vertex="1" parent="1">
          <mxGeometry x="1420" y="620" width="160" height="100" as="geometry" />
        </mxCell>
        <mxCell id="OklFRCkTgphjzxKatDET-21" value="직원 ID" style="ellipse;whiteSpace=wrap;html=1;" vertex="1" parent="1">
          <mxGeometry x="1268" y="1530" width="120" height="80" as="geometry" />
        </mxCell>
        <mxCell id="OklFRCkTgphjzxKatDET-22" value="이름" style="ellipse;whiteSpace=wrap;html=1;" vertex="1" parent="1">
          <mxGeometry x="1440" y="1530" width="120" height="80" as="geometry" />
        </mxCell>
        <mxCell id="OklFRCkTgphjzxKatDET-23" value="이메일&lt;br&gt;" style="ellipse;whiteSpace=wrap;html=1;" vertex="1" parent="1">
          <mxGeometry x="1785" y="1530" width="120" height="80" as="geometry" />
        </mxCell>
        <mxCell id="OklFRCkTgphjzxKatDET-24" value="전화번호" style="ellipse;whiteSpace=wrap;html=1;" vertex="1" parent="1">
          <mxGeometry x="1095" y="1530" width="120" height="80" as="geometry" />
        </mxCell>
        <mxCell id="OklFRCkTgphjzxKatDET-25" value="직책" style="ellipse;whiteSpace=wrap;html=1;" vertex="1" parent="1">
          <mxGeometry x="1613" y="1530" width="120" height="80" as="geometry" />
        </mxCell>
        <mxCell id="OklFRCkTgphjzxKatDET-26" value="시설" style="rounded=0;whiteSpace=wrap;html=1;" vertex="1" parent="1">
          <mxGeometry x="1420" y="1360" width="160" height="100" as="geometry" />
        </mxCell>
        <mxCell id="OklFRCkTgphjzxKatDET-27" value="트레이너 ID" style="ellipse;whiteSpace=wrap;html=1;" vertex="1" parent="1">
          <mxGeometry x="443" y="1330" width="120" height="80" as="geometry" />
        </mxCell>
        <mxCell id="OklFRCkTgphjzxKatDET-28" value="이름" style="ellipse;whiteSpace=wrap;html=1;" vertex="1" parent="1">
          <mxGeometry x="615" y="1330" width="120" height="80" as="geometry" />
        </mxCell>
        <mxCell id="OklFRCkTgphjzxKatDET-29" value="이메일&lt;br&gt;" style="ellipse;whiteSpace=wrap;html=1;" vertex="1" parent="1">
          <mxGeometry x="960" y="1330" width="120" height="80" as="geometry" />
        </mxCell>
        <mxCell id="OklFRCkTgphjzxKatDET-30" value="전화번호" style="ellipse;whiteSpace=wrap;html=1;" vertex="1" parent="1">
          <mxGeometry x="270" y="1330" width="120" height="80" as="geometry" />
        </mxCell>
        <mxCell id="OklFRCkTgphjzxKatDET-31" value="전문 분야" style="ellipse;whiteSpace=wrap;html=1;" vertex="1" parent="1">
          <mxGeometry x="788" y="1330" width="120" height="80" as="geometry" />
        </mxCell>
        <mxCell id="OklFRCkTgphjzxKatDET-32" value="트레이너" style="rounded=0;whiteSpace=wrap;html=1;" vertex="1" parent="1">
          <mxGeometry x="595" y="1160" width="160" height="100" as="geometry" />
        </mxCell>
      </root>
    </mxGraphModel>
  </diagram>
</mxfile>
